PathFileType	4	(X/Y/Z)	 control3min.trc
DataRate	CameraRate	NumFrames	NumMarkers	Units	OrigDataRate	OrigDataStartFrame	OrigNumFrames
200	200	10	39	m	200	751	1000
Frame#	Time	C7			LSH			RSH			MAN			RASI			LASI			HIPR			HIPL			RPSI			LPSI			COX			RTHI1			RTHI2			RTHI3			RTHI4			RLKN			RMKN			RSHA1			RSHA2			RSHA3			RSHA4			RHEEL			RMET5			RMET1			RTOE			LTHI1			LTHI2			LTHI3			LTHI4			LLKN			LMKN			LSHA1			LSHA2			LSHA3			LSHA4			LHEEL			LMET5			LMET1			LTOE			
		X1	Y1	Z1	X2	Y2	Z2	X3	Y3	Z3	X4	Y4	Z4	X5	Y5	Z5	X6	Y6	Z6	X7	Y7	Z7	X8	Y8	Z8	X9	Y9	Z9	X10	Y10	Z10	X11	Y11	Z11	X12	Y12	Z12	X13	Y13	Z13	X14	Y14	Z14	X15	Y15	Z15	X16	Y16	Z16	X17	Y17	Z17	X18	Y18	Z18	X19	Y19	Z19	X20	Y20	Z20	X21	Y21	Z21	X22	Y22	Z22	X23	Y23	Z23	X24	Y24	Z24	X25	Y25	Z25	X26	Y26	Z26	X27	Y27	Z27	X28	Y28	Z28	X29	Y29	Z29	X30	Y30	Z30	X31	Y31	Z31	X32	Y32	Z32	X33	Y33	Z33	X34	Y34	Z34	X35	Y35	Z35	X36	Y36	Z36	X37	Y37	Z37	X38	Y38	Z38	X39	Y39	Z39	
751	3.7550	-0.260547	1.517105	-0.555167	-0.217820	1.501135	-0.742970	-0.222670	1.511162	-0.372510	-0.105423	1.464794	-0.562285	-0.128979	1.007556	-0.429748	-0.126627	1.008344	-0.674294	-0.193626	1.071311	-0.385223	-0.197084	1.076152	-0.714731	-0.302260	1.063804	-0.515058	-0.301770	1.063730	-0.578823	-0.300974	1.064690	-0.548862	-0.180623	0.780541	-0.349709	-0.167240	0.720629	-0.349461	-0.098767	0.744157	-0.355910	-0.118719	0.800400	-0.356242	-0.171497	0.514318	-0.372737	-0.148945	0.499003	-0.503024	-0.273023	0.286724	-0.375083	-0.293229	0.252029	-0.390905	-0.236874	0.227795	-0.389602	-0.220751	0.262912	-0.377864	-0.358576	0.124740	-0.449473	-0.214136	0.034704	-0.376870	-0.160166	0.049451	-0.448721	-0.130836	0.035976	-0.445509	-0.231351	0.758650	-0.735214	-0.214731	0.701505	-0.731503	-0.147726	0.722210	-0.751752	-0.172869	0.778767	-0.753131	-0.192500	0.497788	-0.725082	-0.172692	0.479247	-0.604139	-0.310117	0.274525	-0.708900	-0.000000	0.000000	-0.000000	-0.266332	0.218454	-0.711339	-0.259553	0.260865	-0.721808	-0.382786	0.120109	-0.649366	-0.233838	0.035044	-0.719294	-0.184415	0.052298	-0.649845	-0.157105	0.038531	-0.652982	
752	3.7600	-0.260140	1.510751	-0.555284	-0.217233	1.494654	-0.743251	-0.222396	1.504769	-0.372682	-0.104862	1.458089	-0.562376	-0.129797	1.000968	-0.429844	-0.127471	1.001840	-0.674319	-0.194450	1.064785	-0.385176	-0.197725	1.069704	-0.714932	-0.302965	1.057559	-0.515199	-0.302406	1.057529	-0.578991	-0.301565	1.058443	-0.548942	-0.180174	0.774072	-0.349530	-0.166247	0.714281	-0.348873	-0.098002	0.738379	-0.355673	-0.118472	0.794461	-0.356346	-0.168677	0.508039	-0.372366	-0.145875	0.492796	-0.502427	-0.273492	0.282177	-0.375369	-0.294170	0.247808	-0.391336	-0.238132	0.222845	-0.390239	-0.221530	0.257728	-0.378320	-0.361198	0.120017	-0.449933	-0.214522	0.034214	-0.376448	-0.160480	0.049263	-0.448327	-0.130877	0.035766	-0.445230	-0.230721	0.752194	-0.735431	-0.213802	0.695127	-0.732023	-0.146973	0.716244	-0.752417	-0.172384	0.772681	-0.753462	-0.190026	0.491756	-0.725692	-0.170560	0.473183	-0.604905	-0.310988	0.270339	-0.709147	-0.000000	0.000000	-0.000000	-0.267954	0.213637	-0.710819	-0.260572	0.255853	-0.721638	-0.385625	0.115507	-0.649756	-0.234416	0.034532	-0.719808	-0.185535	0.051825	-0.649104	-0.157668	0.038122	-0.652049	
753	3.7650	-0.259729	1.504337	-0.555397	-0.216609	1.488004	-0.743612	-0.222128	1.498229	-0.372800	-0.104271	1.451213	-0.562458	-0.130613	0.994233	-0.429927	-0.128355	0.995218	-0.674326	-0.195341	1.058026	-0.385094	-0.198469	1.063037	-0.715167	-0.303704	1.051099	-0.515351	-0.303093	1.051133	-0.579163	-0.302232	1.051990	-0.549048	-0.179743	0.767470	-0.349274	-0.165272	0.707821	-0.348194	-0.097262	0.732473	-0.355402	-0.118247	0.788391	-0.356423	-0.165795	0.501637	-0.371945	-0.142684	0.486454	-0.501781	-0.273728	0.277621	-0.375549	-0.294872	0.243558	-0.391640	-0.239159	0.217906	-0.390830	-0.222088	0.252553	-0.378727	-0.363630	0.115347	-0.450318	-0.214894	0.033640	-0.376242	-0.160974	0.049032	-0.447944	-0.131160	0.035684	-0.444879	-0.230088	0.745582	-0.735745	-0.212855	0.688594	-0.732614	-0.146218	0.710141	-0.753188	-0.171908	0.766445	-0.753929	-0.187550	0.485674	-0.726341	-0.168259	0.467042	-0.605712	-0.311565	0.266072	-0.709459	-0.000000	0.000000	-0.000000	-0.269265	0.208786	-0.710385	-0.261289	0.250791	-0.721509	-0.388225	0.110968	-0.650103	-0.234941	0.033998	-0.720558	-0.186552	0.051588	-0.648212	-0.158153	0.037948	-0.651356	
754	3.7700	-0.259319	1.497920	-0.555516	-0.215955	1.481220	-0.744053	-0.221880	1.491588	-0.372855	-0.103629	1.444204	-0.562531	-0.131427	0.987375	-0.429988	-0.129269	0.988519	-0.674314	-0.196298	1.051046	-0.384976	-0.199309	1.056159	-0.715446	-0.304471	1.044436	-0.515509	-0.303825	1.044555	-0.579337	-0.302941	1.045343	-0.549161	-0.179334	0.760777	-0.348942	-0.164332	0.701277	-0.347438	-0.096559	0.726481	-0.355085	-0.118042	0.782228	-0.356442	-0.162882	0.495174	-0.371483	-0.139424	0.480056	-0.501097	-0.273657	0.273036	-0.375608	-0.295254	0.239290	-0.391806	-0.239881	0.213005	-0.391368	-0.222341	0.247381	-0.379102	-0.365827	0.110776	-0.450672	-0.215494	0.032995	-0.375739	-0.161512	0.048947	-0.447956	-0.131295	0.035602	-0.444933	-0.229475	0.738826	-0.736151	-0.211906	0.681928	-0.733256	-0.145480	0.703911	-0.754060	-0.171475	0.760047	-0.754552	-0.185121	0.479590	-0.727022	-0.165842	0.460864	-0.606555	-0.311790	0.261714	-0.709872	-0.000000	0.000000	-0.000000	-0.270181	0.203903	-0.710004	-0.261638	0.245693	-0.721416	-0.390585	0.106457	-0.650277	-0.235180	0.033600	-0.721150	-0.187306	0.051421	-0.647675	-0.158436	0.037756	-0.650780	
755	3.7750	-0.258917	1.491535	-0.555648	-0.215285	1.474348	-0.744566	-0.221663	1.484883	-0.372846	-0.102929	1.437099	-0.562595	-0.132242	0.980433	-0.430027	-0.130200	0.981778	-0.674285	-0.197324	1.043862	-0.384818	-0.200246	1.049085	-0.715771	-0.305281	1.037593	-0.515669	-0.304635	1.037837	-0.579512	-0.303739	1.038536	-0.549305	-0.178959	0.754048	-0.348536	-0.163438	0.694700	-0.346626	-0.095894	0.720436	-0.354698	-0.117861	0.776010	-0.356369	-0.159960	0.488713	-0.370991	-0.136160	0.473690	-0.500394	-0.273260	0.268444	-0.375547	-0.295305	0.235017	-0.391841	-0.240278	0.208140	-0.391888	-0.222271	0.242230	-0.379470	-0.367802	0.106324	-0.451074	-0.216234	0.032355	-0.374808	-0.161911	0.048954	-0.448072	-0.131352	0.035542	-0.444850	-0.228900	0.731945	-0.736627	-0.210972	0.675159	-0.733924	-0.144785	0.697577	-0.755017	-0.171092	0.753508	-0.755335	-0.182768	0.473534	-0.727716	-0.163362	0.454703	-0.607424	-0.311673	0.257278	-0.710367	-0.000000	0.000000	-0.000000	-0.270703	0.198999	-0.709601	-0.261627	0.240565	-0.721292	-0.392705	0.101964	-0.650131	-0.235264	0.033312	-0.721572	-0.187778	0.051195	-0.647380	-0.158646	0.037626	-0.650362	
756	3.7800	-0.258545	1.485204	-0.555802	-0.214602	1.467433	-0.745136	-0.221494	1.478159	-0.372778	-0.102161	1.429926	-0.562657	-0.133066	0.973445	-0.430041	-0.131141	0.975037	-0.674239	-0.198421	1.036494	-0.384623	-0.201270	1.041840	-0.716147	-0.306148	1.030601	-0.515831	-0.305537	1.031000	-0.579680	-0.304656	1.031600	-0.549477	-0.178610	0.747348	-0.348059	-0.162601	0.688133	-0.345799	-0.095274	0.714396	-0.354219	-0.117711	0.769789	-0.356180	-0.157070	0.482314	-0.370482	-0.132963	0.467447	-0.499694	-0.272585	0.263846	-0.375405	-0.295072	0.230728	-0.391815	-0.240371	0.203346	-0.392449	-0.221920	0.237120	-0.379875	-0.369576	0.101960	-0.451567	-0.216753	0.031741	-0.373920	-0.162159	0.048884	-0.447980	-0.131360	0.035503	-0.444579	-0.228380	0.724980	-0.737134	-0.210071	0.668314	-0.734585	-0.144153	0.691177	-0.756039	-0.170802	0.746885	-0.756208	-0.180512	0.467537	-0.728393	-0.160905	0.448604	-0.608307	-0.311252	0.252779	-0.710835	-0.000000	0.000000	-0.000000	-0.270890	0.194102	-0.709094	-0.261303	0.235423	-0.721066	-0.394582	0.097535	-0.649572	-0.235393	0.033063	-0.721946	-0.188018	0.050971	-0.646903	-0.158770	0.037519	-0.650200	
757	3.7850	-0.258227	1.478934	-0.555988	-0.213922	1.460530	-0.745747	-0.221397	1.471461	-0.372663	-0.101319	1.422729	-0.562721	-0.133907	0.966453	-0.430037	-0.132081	0.968341	-0.674192	-0.199589	1.028968	-0.384395	-0.202369	1.034468	-0.716583	-0.307083	1.023486	-0.515995	-0.306532	1.024085	-0.579841	-0.305663	1.024564	-0.549656	-0.178315	0.740735	-0.347545	-0.161845	0.681654	-0.344984	-0.094726	0.708412	-0.353637	-0.117608	0.763628	-0.355866	-0.154259	0.476027	-0.369969	-0.129907	0.461413	-0.499026	-0.271709	0.259242	-0.375271	-0.294618	0.226439	-0.391810	-0.240216	0.198662	-0.393111	-0.221354	0.232073	-0.380369	-0.371153	0.097701	-0.452224	-0.217075	0.031293	-0.373234	-0.162275	0.048730	-0.447833	-0.131301	0.035447	-0.444430	-0.227938	0.717980	-0.737636	-0.209227	0.661444	-0.735207	-0.143608	0.684755	-0.757102	-0.170610	0.740209	-0.757104	-0.178366	0.461625	-0.729019	-0.158497	0.442628	-0.609172	-0.310607	0.248272	-0.711153	-0.000000	0.000000	-0.000000	-0.270828	0.189240	-0.708406	-0.260752	0.230298	-0.720658	-0.396205	0.093239	-0.648553	-0.235636	0.032861	-0.722267	-0.188210	0.050814	-0.646699	-0.158822	0.037431	-0.650280	
758	3.7900	-0.257975	1.472724	-0.556202	-0.213254	1.453699	-0.746381	-0.221390	1.464846	-0.372521	-0.100413	1.415571	-0.562792	-0.134766	0.959502	-0.430023	-0.133031	0.961722	-0.674149	-0.200820	1.021313	-0.384147	-0.203540	1.027009	-0.717083	-0.308096	1.016314	-0.516165	-0.307588	1.017122	-0.579985	-0.306702	1.017465	-0.549815	-0.178098	0.734274	-0.347030	-0.161202	0.675318	-0.344206	-0.094273	0.702555	-0.352948	-0.117580	0.757601	-0.355424	-0.151567	0.469922	-0.369496	-0.127045	0.455676	-0.498412	-0.270706	0.254679	-0.375244	-0.294009	0.222187	-0.391923	-0.239860	0.194093	-0.393892	-0.220630	0.227123	-0.380988	-0.372536	0.093623	-0.453099	-0.217457	0.030887	-0.372543	-0.162368	0.048597	-0.447858	-0.131215	0.035384	-0.444344	-0.227599	0.711025	-0.738085	-0.208473	0.654633	-0.735758	-0.143182	0.678374	-0.758167	-0.170538	0.733548	-0.758055	-0.176322	0.455830	-0.729568	-0.156136	0.436851	-0.609971	-0.309849	0.243799	-0.711215	-0.000000	0.000000	-0.000000	-0.270626	0.184454	-0.707434	-0.260087	0.225248	-0.720009	-0.397577	0.089148	-0.647055	-0.235980	0.032781	-0.722411	-0.188418	0.050701	-0.646709	-0.158850	0.037312	-0.650414	
759	3.7950	-0.257798	1.466587	-0.556430	-0.212620	1.446995	-0.747019	-0.221492	1.458361	-0.372377	-0.099504	1.408526	-0.562872	-0.135649	0.952657	-0.430010	-0.133994	0.955210	-0.674120	-0.202119	1.013577	-0.383890	-0.204785	1.019525	-0.717644	-0.309174	1.009167	-0.516354	-0.308722	1.010212	-0.580097	-0.307800	1.010422	-0.549974	-0.177999	0.728047	-0.346558	-0.160694	0.669206	-0.343495	-0.093936	0.696906	-0.352157	-0.117650	0.751780	-0.354864	-0.149021	0.464056	-0.369074	-0.124410	0.450297	-0.497881	-0.269669	0.250229	-0.375391	-0.293328	0.218027	-0.392226	-0.239368	0.189699	-0.394834	-0.219842	0.222362	-0.381766	-0.373730	0.089767	-0.454239	-0.217913	0.030580	-0.371996	-0.162553	0.048515	-0.447977	-0.131161	0.035328	-0.444222	-0.227395	0.704226	-0.738441	-0.207846	0.647989	-0.736208	-0.142916	0.672136	-0.759207	-0.170618	0.726982	-0.759005	-0.174367	0.450187	-0.730010	-0.153792	0.431354	-0.610666	-0.309071	0.239452	-0.710949	-0.000000	0.000000	-0.000000	-0.270375	0.179832	-0.706167	-0.259409	0.220359	-0.719100	-0.398682	0.085291	-0.645105	-0.236369	0.032826	-0.722326	-0.188596	0.050594	-0.646499	-0.158847	0.037199	-0.650484	
760	3.8000	-0.257688	1.460577	-0.556656	-0.212032	1.440480	-0.747647	-0.221712	1.452066	-0.372258	-0.098638	1.401691	-0.562956	-0.136554	0.945975	-0.430010	-0.134985	0.948844	-0.674119	-0.203485	1.005820	-0.383640	-0.206108	1.012085	-0.718256	-0.310288	1.002189	-0.516562	-0.309845	1.003467	-0.580167	-0.308848	1.003585	-0.550085	-0.178032	0.722130	-0.346157	-0.160338	0.663400	-0.342873	-0.093741	0.691545	-0.351286	-0.117834	0.746246	-0.354218	-0.146656	0.458493	-0.368721	-0.122017	0.445322	-0.497451	-0.268672	0.245947	-0.375761	-0.292630	0.214017	-0.392776	-0.238799	0.185543	-0.395942	-0.219052	0.217846	-0.382699	-0.374738	0.086154	-0.455692	-0.218267	0.030504	-0.371971	-0.162742	0.048428	-0.448192	-0.131144	0.035273	-0.444165	-0.227359	0.697721	-0.738668	-0.207395	0.641630	-0.736526	-0.142850	0.666154	-0.760189	-0.170908	0.720686	-0.759900	-0.172479	0.444749	-0.730331	-0.151426	0.426209	-0.611221	-0.308336	0.235318	-0.710280	-0.000000	0.000000	-0.000000	-0.270133	0.175454	-0.704655	-0.258790	0.215728	-0.717961	-0.399520	0.081703	-0.642788	-0.236826	0.032966	-0.722105	-0.188637	0.050495	-0.646180	-0.158780	0.037101	-0.650669	
